<?xml version="1.0" standalone="no"?><svg xmlns="http://www.w3.org/2000/svg" viewBox="0 0 1440 320"><path fill="#5000ca" fill-opacity="1" d="M0,64L21.8,64C43.6,64,87,64,131,58.7C174.5,53,218,43,262,64C305.5,85,349,139,393,160C436.4,181,480,171,524,170.7C567.3,171,611,181,655,186.7C698.2,192,742,192,785,186.7C829.1,181,873,171,916,138.7C960,107,1004,53,1047,64C1090.9,75,1135,149,1178,160C1221.8,171,1265,117,1309,106.7C1352.7,96,1396,128,1418,144L1440,160L1440,320L1418.2,320C1396.4,320,1353,320,1309,320C1265.5,320,1222,320,1178,320C1134.5,320,1091,320,1047,320C1003.6,320,960,320,916,320C872.7,320,829,320,785,320C741.8,320,698,320,655,320C610.9,320,567,320,524,320C480,320,436,320,393,320C349.1,320,305,320,262,320C218.2,320,175,320,131,320C87.3,320,44,320,22,320L0,320Z"></path></svg>